<?xml version="1.0" encoding="UTF-8" standalone="no"?>
<!DOCTYPE svg PUBLIC "-//W3C//DTD SVG 1.1//EN" "http://www.w3.org/Graphics/SVG/1.1/DTD/svg11.dtd">
<svg width="100%" height="100%" viewBox="0 0 448 194" version="1.1" xmlns="http://www.w3.org/2000/svg" xmlns:xlink="http://www.w3.org/1999/xlink" xml:space="preserve" xmlns:serif="http://www.serif.com/" style="fill-rule:evenodd;clip-rule:evenodd;stroke-linejoin:round;stroke-miterlimit:2;">
    <g transform="matrix(1,0,0,1,-132,-162.193)">
        <g transform="matrix(1,0,0,1,-52,-5.80738)">
            <circle cx="384.5" cy="261.5" r="93.5" style="fill:white;"/>
        </g>
        <g transform="matrix(0.716578,0,0,0.716578,191.976,101.615)">
            <circle cx="384.5" cy="261.5" r="93.5" style="fill:white;"/>
        </g>
        <g transform="matrix(0.839572,0,0,0.839572,70.6845,50.9519)">
            <circle cx="384.5" cy="261.5" r="93.5" style="fill:white;"/>
        </g>
        <g transform="matrix(0.540107,0,0,0.526826,321.829,162.17)">
            <circle cx="384.5" cy="261.5" r="93.5" style="fill:white;"/>
        </g>
        <g transform="matrix(0.518717,0,0,0.505961,-18.9465,167.691)">
            <circle cx="384.5" cy="261.5" r="93.5" style="fill:white;"/>
        </g>
        <g transform="matrix(0.719251,0,0,0.701565,-28.8021,100.137)">
            <circle cx="384.5" cy="261.5" r="93.5" style="fill:white;"/>
        </g>
    </g>
</svg>
