<?xml version="1.0" encoding="UTF-8" standalone="no"?>
<!DOCTYPE svg PUBLIC "-//W3C//DTD SVG 1.1//EN" "http://www.w3.org/Graphics/SVG/1.1/DTD/svg11.dtd">
<svg width="100%" height="100%" viewBox="0 0 800 600" version="1.1" xmlns="http://www.w3.org/2000/svg" xmlns:xlink="http://www.w3.org/1999/xlink" xml:space="preserve" xmlns:serif="http://www.serif.com/" style="fill-rule:evenodd;clip-rule:evenodd;stroke-linejoin:round;stroke-miterlimit:2;">
    <g transform="matrix(1,0,0,1,33,-16)">
        <circle cx="384.5" cy="261.5" r="93.5" style="fill:white;"/>
    </g>
    <g transform="matrix(0.839572,0,0,0.839572,181.184,33.9519)">
        <circle cx="384.5" cy="261.5" r="93.5" style="fill:white;"/>
    </g>
    <g transform="matrix(0.839572,0,0,0.839572,7.68449,40.9519)">
        <circle cx="384.5" cy="261.5" r="93.5" style="fill:white;"/>
    </g>
    <g transform="matrix(0.652406,0,0,0.636364,314.15,94.0909)">
        <circle cx="384.5" cy="261.5" r="93.5" style="fill:white;"/>
    </g>
    <g transform="matrix(0.518717,0,0,0.505961,408.553,140.384)">
        <circle cx="384.5" cy="261.5" r="93.5" style="fill:white;"/>
    </g>
    <g transform="matrix(0.518717,0,0,0.505961,-8.44652,140.384)">
        <circle cx="384.5" cy="261.5" r="93.5" style="fill:white;"/>
    </g>
    <g transform="matrix(0.36458,0,0,0.355615,516.319,187.757)">
        <circle cx="384.5" cy="261.5" r="93.5" style="fill:white;"/>
    </g>
    <g transform="matrix(0.652406,0,0,0.636364,1.14973,94.0909)">
        <circle cx="384.5" cy="261.5" r="93.5" style="fill:white;"/>
    </g>
</svg>
